# xmcd
# 
# Track frame offsets:
#     182
#     13600
#     26812
#     42250
#     54520
#     70020
#     83420
#     97227
#     111185
#     132015
#     146570
#     161212
#     179132
#     198017
#     215052
#     232495
#     250137
#     266257
#     283930
#     301665
# 
# Disc length: 4202
# 
# Revision: 5
# Processed by: cddbd v1.5.2PL0 Copyright (c) Steve Scherf et al.
# Submitted via: fre:ac v1.0.17
# 
DISCID=26106814
DTITLE=Kool and The Gang - Anthology - 20 Greatest Tracks
DYEAR=1991
DGENRE=Soul
TTITLE0=Kool And The Gang
TTITLE1=Let The Music Take Your Mind
TTITLE2=Funky Man
TTITLE3=Who's Gonna Take The Weight
TTITLE4=Love The Life You Live (Pt 1)
TTITLE5=Country Junkie
TTITLE6=Funky Stuff
TTITLE7=Jungle Boogie
TTITLE8=Hollywood Swinging
TTITLE9=Rhyme Tyme People
TTITLE10=Spirit Of The Boogie
TTITLE11=Open Sesame (Pt 1)
TTITLE12=Jones vs Jones
TTITLE13=Take My Heart (You Can Have It)
TTITLE14=Big Fun
TTITLE15=Tonight
TTITLE16=Fresh
TTITLE17=Victory
TTITLE18=Stone Love
TTITLE19=Celebration 1988 Remix (Saw)
EXTD=YEAR: 1991 ID3G: 42
EXTT0=
EXTT1=
EXTT2=
EXTT3=
EXTT4=
EXTT5=
EXTT6=
EXTT7=
EXTT8=
EXTT9=
EXTT10=
EXTT11=
EXTT12=
EXTT13=
EXTT14=
EXTT15=
EXTT16=
EXTT17=
EXTT18=
EXTT19=
PLAYORDER=
